# xmcd
#
# Track frame offsets:
#	150
#	9390
#	36730
#	52446
#	78656
#	101830
#	121075
#	129452
#	140821
#	154684
#	175842
#	189632
#	203029
#	217578
#
# Disc length: 3155 seconds
# Revision: 0
# Processed by: cddbd v1.5.2PL0 Copyright (c) Steve Scherf et al.
# Submitted via: dBpowerAMP V12.0
#
DISCID=cb0c510e
DTITLE=Hale Dwoskin - Absolute Freedom CD 05 - The Finest Level of Creation
DYEAR=2005
DGENRE=Speech
TTITLE0=Introduction
TTITLE1=Welcoming What Is - What Is - Self Is - Other Is - Is Not
TTITLE2=The Body Is - The Mind Is - Is Not
TTITLE3=Seeing Is - Hearing Is - Feeling Is - Suffering Is - Is Not
TTITLE4=Memory Is - Time Is - Space Is - Is Not
TTITLE5=Emptiness Is - Fullness Is - Is Not - Take a Break
TTITLE6=Welcome Back
TTITLE7=Illusion Is - Reality Is - Is Not
TTITLE8=Everything Is - Nothing Is - Is Not
TTITLE9=Awareness Is - Consciousness Is - Bliss Is - Is Not
TTITLE10=Limitation Is - Freedom Is - Is Not
TTITLE11=That Is - This Is - Is Not
TTITLE12=Existence Is - Void Is - Is Not
TTITLE13=I Is - I Is Not - Is - Is Not
EXTD=
EXTT0=
EXTT1=
EXTT2=
EXTT3=
EXTT4=
EXTT5=
EXTT6=
EXTT7=
EXTT8=
EXTT9=
EXTT10=
EXTT11=
EXTT12=
EXTT13=
PLAYORDER=
